Format                           : AVI
Format/Info                      : Audio Video Interleave
File size                        : 735 MiB
Duration                         : 1h 45mn
Overall bit rate                 : 971 Kbps
Writing library                  : VirtualDub build 32839/release

Video
ID                               : 0
Format                           : MPEG-4 Visual
Format profile                   : Advanced Simple@L5
Format settings, BVOP            : Yes
Format settings, QPel            : No
Format settings, GMC             : No warppoints
Format settings, Matrix          : Custom
Codec ID                         : XVID
Codec ID/Hint                    : XviD
Duration                         : 1h 45mn
Bit rate                         : 834 Kbps
Width                            : 672 pixels
Height                           : 290 pixels
Display aspect ratio             : 2.35:1
Frame rate                       : 25.000 fps
Color space                      : YUV
Chroma subsampling               : 4:2:0
Bit depth                        : 8 bits
Scan type                        : Progressive
Bits/(Pixel*Frame)               : 0.171
Stream size                      : 631 MiB (86%)
Writing library                  : XviD 1.2.1 (UTC 2008-12-04)

Audio
ID                               : 1
Format                           : MPEG Audio
Format version                   : Version 1
Format profile                   : Layer 3
Mode                             : Joint stereo
Mode extension                   : MS Stereo
Codec ID                         : 55
Codec ID/Hint                    : MP3
Duration                         : 1h 45mn
Bit rate mode                    : Constant
Bit rate                         : 128 Kbps
Channel(s)                       : 2 channels
Sampling rate                    : 44.1 KHz
Stream size                      : 96.9 MiB (13%)
Alignment                        : Split accross interleaves
Interleave, duration             : 40 ms (1.00 video frame)
Interleave, preload duration     : 500 ms
Writing library                  : LAME3.98.2



 
http://www.imdb.com/title/tt1161864/






Users: 6.1/10 (4,640 votes) 77 reviews | Critics: 160 reviews Metascore: 38/100 (based on 33 reviews from Metacritic.com)

An American seminary student travels to Italy to take an exorcism course.
Director:
Mikael Håfström
Writers:
Michael Petroni, Matt Baglio (book) (suggestion)
Stars:
Colin O'Donoghue, Anthony Hopkins and Ciarán 

Is this better than the majority of horror movies that have been released in the past several years? Yes I think so. But is it on par with something I'd expect from Anthony Hopkins? Absolutely not. I'm convinced that in his advanced years he's taking roles for the fun of it, roles that allow him to indulge. He's already gotten all the acclaim and recognition any one actor can hope to have. I doubt he needs the money, so I'm thinking his decision to play the part of Father Lucas in this film is based simply on the fact that it sounded fun. . Even though I was secretly thinking that his role of Dr. Lecter would have easily fit here and been appropriate. It was insidious and intense. Just what this film needed.

The first two acts are done well, and I was prepared to give it a 7. I was wholeheartedly anticipating the inevitable climax which I knew was coming from the previews, but I was severely disappointed. Up until that point, the movie was sophisticated and smart. However by the end, it had descended into a cheese fest like you wouldn't believe. All because of that terrible dialogue. It was just funny. I do mean literally funny; the audience started laughing. I hated to see such a phenomenal actor as Hopkins having to actually go through with that melodramatic fluff. I think if the writers toned it down a bit and opted for subtlety the outcome would have been many times better. It seems that every movie dealing with exorcism has to go The Exorcist route and try to drum up some profoundly shocking dialogue. That's a losing battle. The Exorcist is in a league of it's own. Don't try to beat it; do your own thing. That's why I appreciate Exorcism of Emily Rose. Now that was a rather good film. As it stands now, The Rite is still a capable film, but those last 20 minutes really don't do it for me. It was there that the whole thing took a nose dive.





 
http://img189.imageshack.us/img189/237/vlcsnap2011032810h39m02.png
 
http://img28.imageshack.us/img28/2893/vlcsnap2011032810h38m23.png
 
http://img861.imageshack.us/img861/726/vlcsnap2011032810h37m47.png
 
http://img841.imageshack.us/img841/607/vlcsnap2011032810h36m11.png



SOURCES:



VIDEO: cinedub ... Thanks

AUDIO: Imagine    ... Thanks


First of all have to say a big thanks to the guys at imagine we all encode these releases and give thanks (well most do).This is just my take on it but really the hard parts already done .....Before you think im kissing ass lol nope just showing some appreciation ...  so thanks 

Like imagines release it has the hardcoded subs throught but the english subs that imagine encoded for the parts needed.Video is watchable few dark scenes if you dont mind cams then its ok for you.Ran a few filters brightness/contrast saturation not a load more i just went for the smaller sized encode......Anyway enjoy folks 


Greetz to Imagine ,Flawl3ss,DiLLoN,BDK,NOiR,TOXiCiNK,THC,Ez,Rx,
